<?xml version="1.0" encoding="UTF-8"?>
<svg width="16px" height="16px" viewBox="0 0 16 16" version="1.1" xmlns="http://www.w3.org/2000/svg" xmlns:xlink="http://www.w3.org/1999/xlink">
    <!-- Generator: Sketch 50.2 (55047) - http://www.bohemiancoding.com/sketch -->
    <title>Group 8</title>
    <desc>Created with Sketch.</desc>
    <defs></defs>
    <g id="Admin" stroke="none" stroke-width="1" fill="none" fill-rule="evenodd">
        <g id="Contacts-3" transform="translate(-20.000000, -110.000000)" fill="#6F6F6F" fill-rule="nonzero">
            <g id="Group-8" transform="translate(20.000000, 110.000000)">
                <g id="icons/utility/company">
                    <path d="M6.22887701,0.145454545 L1.22352941,0.145454545 C0.607486631,0.145454545 0.145454545,0.607486631 0.145454545,1.22352941 L0.145454545,15.4695187 C0.145454545,15.6235294 0.376470588,15.8545455 0.530481283,15.8545455 L1.99358289,15.8545455 C2.14759358,15.8545455 2.30160428,15.7005348 2.30160428,15.4695187 L2.30160428,13.313369 C2.30160428,13.0823529 2.45561497,13.0053476 2.68663102,13.0053476 L4.7657754,13.0053476 C4.99679144,13.0053476 5.15080214,13.0823529 5.15080214,13.313369 L5.15080214,15.4695187 C5.15080214,15.7005348 5.30481283,15.8545455 5.53582888,15.8545455 L6.61390374,15.8545455 C6.99893048,15.8545455 7.30695187,15.4695187 7.30695187,15.084492 L7.30695187,1.22352941 C7.30695187,0.607486631 6.84491979,0.145454545 6.22887701,0.145454545 Z M2.99465241,11.3882353 C2.99465241,11.4652406 2.91764706,11.542246 2.84064171,11.542246 L1.76256684,11.542246 C1.6855615,11.542246 1.60855615,11.4652406 1.60855615,11.3882353 L1.60855615,9.6171123 C1.60855615,9.4631016 1.6855615,9.38609626 1.76256684,9.38609626 L2.84064171,9.38609626 C2.91764706,9.38609626 2.99465241,9.4631016 2.99465241,9.6171123 L2.99465241,11.3882353 Z M2.99465241,7.8459893 C2.99465241,7.92299465 2.91764706,8 2.84064171,8 L1.76256684,8 C1.6855615,8 1.60855615,7.92299465 1.60855615,7.8459893 L1.60855615,6.07486631 C1.60855615,5.92085561 1.6855615,5.84385027 1.76256684,5.84385027 L2.84064171,5.84385027 C2.91764706,5.84385027 2.99465241,5.92085561 2.99465241,6.07486631 L2.99465241,7.8459893 Z M2.99465241,4.30374332 C2.99465241,4.38074866 2.91764706,4.45775401 2.84064171,4.45775401 L1.76256684,4.45775401 C1.6855615,4.45775401 1.60855615,4.38074866 1.60855615,4.30374332 L1.60855615,2.45561497 C1.60855615,2.37860963 1.6855615,2.30160428 1.76256684,2.30160428 L2.84064171,2.30160428 C2.91764706,2.30160428 2.99465241,2.37860963 2.99465241,2.45561497 L2.99465241,4.30374332 Z M5.84385027,11.3882353 C5.84385027,11.4652406 5.76684492,11.542246 5.68983957,11.542246 L4.61176471,11.542246 C4.53475936,11.542246 4.45775401,11.4652406 4.45775401,11.3882353 L4.45775401,9.6171123 C4.45775401,9.4631016 4.53475936,9.38609626 4.61176471,9.38609626 L5.68983957,9.38609626 C5.76684492,9.38609626 5.84385027,9.4631016 5.84385027,9.6171123 L5.84385027,11.3882353 Z M5.84385027,7.8459893 C5.84385027,7.92299465 5.76684492,8 5.68983957,8 L4.61176471,8 C4.53475936,8 4.45775401,7.92299465 4.45775401,7.8459893 L4.45775401,6.07486631 C4.45775401,5.92085561 4.53475936,5.84385027 4.61176471,5.84385027 L5.68983957,5.84385027 C5.76684492,5.84385027 5.84385027,5.92085561 5.84385027,6.07486631 L5.84385027,7.8459893 Z M5.84385027,4.30374332 C5.84385027,4.38074866 5.76684492,4.45775401 5.68983957,4.45775401 L4.61176471,4.45775401 C4.53475936,4.45775401 4.45775401,4.38074866 4.45775401,4.30374332 L4.45775401,2.45561497 C4.45775401,2.37860963 4.53475936,2.30160428 4.61176471,2.30160428 L5.68983957,2.30160428 C5.76684492,2.30160428 5.84385027,2.37860963 5.84385027,2.45561497 L5.84385027,4.30374332 Z M14.7764706,3.76470588 L9.77112299,3.76470588 C9.15508021,3.76470588 8.69304813,4.22673797 8.69304813,4.7657754 L8.69304813,15.4695187 C8.69304813,15.6235294 8.92406417,15.8545455 9.07807487,15.8545455 L10.4641711,15.8545455 C10.6951872,15.8545455 10.8491979,15.7005348 10.8491979,15.4695187 L10.8491979,13.313369 C10.8491979,13.0823529 11.0032086,13.0053476 11.2342246,13.0053476 L13.313369,13.0053476 C13.544385,13.0053476 13.6983957,13.0823529 13.6983957,13.313369 L13.6983957,15.4695187 C13.6983957,15.7005348 13.8524064,15.8545455 14.0064171,15.8545455 L15.084492,15.8545455 C15.4695187,15.8545455 15.8545455,15.4695187 15.8545455,15.084492 L15.8545455,4.7657754 C15.8545455,4.22673797 15.3925134,3.76470588 14.7764706,3.76470588 Z M11.542246,11.3882353 C11.542246,11.4652406 11.4652406,11.542246 11.3882353,11.542246 L10.3101604,11.542246 C10.2331551,11.542246 10.1561497,11.4652406 10.1561497,11.3882353 L10.1561497,9.6171123 C10.1561497,9.4631016 10.2331551,9.38609626 10.3101604,9.38609626 L11.3882353,9.38609626 C11.4652406,9.38609626 11.542246,9.4631016 11.542246,9.6171123 L11.542246,11.3882353 Z M11.542246,7.8459893 C11.542246,7.92299465 11.4652406,8 11.3882353,8 L10.3101604,8 C10.2331551,8 10.1561497,7.92299465 10.1561497,7.8459893 L10.1561497,6.07486631 C10.1561497,5.92085561 10.2331551,5.84385027 10.3101604,5.84385027 L11.3882353,5.84385027 C11.4652406,5.84385027 11.542246,5.92085561 11.542246,6.07486631 L11.542246,7.8459893 Z M14.3914439,11.3882353 C14.3914439,11.4652406 14.3144385,11.542246 14.2374332,11.542246 L13.1593583,11.542246 C13.0823529,11.542246 13.0053476,11.4652406 13.0053476,11.3882353 L13.0053476,9.6171123 C13.0053476,9.4631016 13.0823529,9.38609626 13.1593583,9.38609626 L14.2374332,9.38609626 C14.3144385,9.38609626 14.3914439,9.4631016 14.3914439,9.6171123 L14.3914439,11.3882353 Z M14.3914439,7.8459893 C14.3914439,7.92299465 14.3144385,8 14.2374332,8 L13.1593583,8 C13.0823529,8 13.0053476,7.92299465 13.0053476,7.8459893 L13.0053476,6.07486631 C13.0053476,5.92085561 13.0823529,5.84385027 13.1593583,5.84385027 L14.2374332,5.84385027 C14.3144385,5.84385027 14.3914439,5.92085561 14.3914439,6.07486631 L14.3914439,7.8459893 Z" id="Shape"></path>
                </g>
            </g>
        </g>
    </g>
</svg>