<?xml version="1.0" encoding="UTF-8"?>
<svg width="64px" height="64px" viewBox="0 0 64 64" version="1.1" xmlns="http://www.w3.org/2000/svg" xmlns:xlink="http://www.w3.org/1999/xlink">
    <!-- Generator: Sketch 50.2 (55047) - http://www.bohemiancoding.com/sketch -->
    <title>Group 2</title>
    <desc>Created with Sketch.</desc>
    <defs></defs>
    <g id="Admin" stroke="none" stroke-width="1" fill="none" fill-rule="evenodd">
        <g id="Contacts-3" transform="translate(-390.000000, -121.000000)">
            <g id="Group-2" transform="translate(390.000000, 121.000000)">
                <g id="Group-4" fill="#F1618C">
                    <rect id="Rectangle-19-Copy-3" x="0" y="0" width="64" height="64" rx="3"></rect>
                </g>
                <path d="M26.9411765,13 L15.4705882,13 C14.0588235,13 13,14.0588235 13,15.4705882 L13,48.1176471 C13,48.4705882 13.5294118,49 13.8823529,49 L17.2352941,49 C17.5882353,49 17.9411765,48.6470588 17.9411765,48.1176471 L17.9411765,43.1764706 C17.9411765,42.6470588 18.2941176,42.4705882 18.8235294,42.4705882 L23.5882353,42.4705882 C24.1176471,42.4705882 24.4705882,42.6470588 24.4705882,43.1764706 L24.4705882,48.1176471 C24.4705882,48.6470588 24.8235294,49 25.3529412,49 L27.8235294,49 C28.7058824,49 29.4117647,48.1176471 29.4117647,47.2352941 L29.4117647,15.4705882 C29.4117647,14.0588235 28.3529412,13 26.9411765,13 Z M19.5294118,38.7647059 C19.5294118,38.9411765 19.3529412,39.1176471 19.1764706,39.1176471 L16.7058824,39.1176471 C16.5294118,39.1176471 16.3529412,38.9411765 16.3529412,38.7647059 L16.3529412,34.7058824 C16.3529412,34.3529412 16.5294118,34.1764706 16.7058824,34.1764706 L19.1764706,34.1764706 C19.3529412,34.1764706 19.5294118,34.3529412 19.5294118,34.7058824 L19.5294118,38.7647059 Z M19.5294118,30.6470588 C19.5294118,30.8235294 19.3529412,31 19.1764706,31 L16.7058824,31 C16.5294118,31 16.3529412,30.8235294 16.3529412,30.6470588 L16.3529412,26.5882353 C16.3529412,26.2352941 16.5294118,26.0588235 16.7058824,26.0588235 L19.1764706,26.0588235 C19.3529412,26.0588235 19.5294118,26.2352941 19.5294118,26.5882353 L19.5294118,30.6470588 Z M19.5294118,22.5294118 C19.5294118,22.7058824 19.3529412,22.8823529 19.1764706,22.8823529 L16.7058824,22.8823529 C16.5294118,22.8823529 16.3529412,22.7058824 16.3529412,22.5294118 L16.3529412,18.2941176 C16.3529412,18.1176471 16.5294118,17.9411765 16.7058824,17.9411765 L19.1764706,17.9411765 C19.3529412,17.9411765 19.5294118,18.1176471 19.5294118,18.2941176 L19.5294118,22.5294118 Z M26.0588235,38.7647059 C26.0588235,38.9411765 25.8823529,39.1176471 25.7058824,39.1176471 L23.2352941,39.1176471 C23.0588235,39.1176471 22.8823529,38.9411765 22.8823529,38.7647059 L22.8823529,34.7058824 C22.8823529,34.3529412 23.0588235,34.1764706 23.2352941,34.1764706 L25.7058824,34.1764706 C25.8823529,34.1764706 26.0588235,34.3529412 26.0588235,34.7058824 L26.0588235,38.7647059 Z M26.0588235,30.6470588 C26.0588235,30.8235294 25.8823529,31 25.7058824,31 L23.2352941,31 C23.0588235,31 22.8823529,30.8235294 22.8823529,30.6470588 L22.8823529,26.5882353 C22.8823529,26.2352941 23.0588235,26.0588235 23.2352941,26.0588235 L25.7058824,26.0588235 C25.8823529,26.0588235 26.0588235,26.2352941 26.0588235,26.5882353 L26.0588235,30.6470588 Z M26.0588235,22.5294118 C26.0588235,22.7058824 25.8823529,22.8823529 25.7058824,22.8823529 L23.2352941,22.8823529 C23.0588235,22.8823529 22.8823529,22.7058824 22.8823529,22.5294118 L22.8823529,18.2941176 C22.8823529,18.1176471 23.0588235,17.9411765 23.2352941,17.9411765 L25.7058824,17.9411765 C25.8823529,17.9411765 26.0588235,18.1176471 26.0588235,18.2941176 L26.0588235,22.5294118 Z M46.5294118,21.2941176 L35.0588235,21.2941176 C33.6470588,21.2941176 32.5882353,22.3529412 32.5882353,23.5882353 L32.5882353,48.1176471 C32.5882353,48.4705882 33.1176471,49 33.4705882,49 L36.6470588,49 C37.1764706,49 37.5294118,48.6470588 37.5294118,48.1176471 L37.5294118,43.1764706 C37.5294118,42.6470588 37.8823529,42.4705882 38.4117647,42.4705882 L43.1764706,42.4705882 C43.7058824,42.4705882 44.0588235,42.6470588 44.0588235,43.1764706 L44.0588235,48.1176471 C44.0588235,48.6470588 44.4117647,49 44.7647059,49 L47.2352941,49 C48.1176471,49 49,48.1176471 49,47.2352941 L49,23.5882353 C49,22.3529412 47.9411765,21.2941176 46.5294118,21.2941176 Z M39.1176471,38.7647059 C39.1176471,38.9411765 38.9411765,39.1176471 38.7647059,39.1176471 L36.2941176,39.1176471 C36.1176471,39.1176471 35.9411765,38.9411765 35.9411765,38.7647059 L35.9411765,34.7058824 C35.9411765,34.3529412 36.1176471,34.1764706 36.2941176,34.1764706 L38.7647059,34.1764706 C38.9411765,34.1764706 39.1176471,34.3529412 39.1176471,34.7058824 L39.1176471,38.7647059 Z M39.1176471,30.6470588 C39.1176471,30.8235294 38.9411765,31 38.7647059,31 L36.2941176,31 C36.1176471,31 35.9411765,30.8235294 35.9411765,30.6470588 L35.9411765,26.5882353 C35.9411765,26.2352941 36.1176471,26.0588235 36.2941176,26.0588235 L38.7647059,26.0588235 C38.9411765,26.0588235 39.1176471,26.2352941 39.1176471,26.5882353 L39.1176471,30.6470588 Z M45.6470588,38.7647059 C45.6470588,38.9411765 45.4705882,39.1176471 45.2941176,39.1176471 L42.8235294,39.1176471 C42.6470588,39.1176471 42.4705882,38.9411765 42.4705882,38.7647059 L42.4705882,34.7058824 C42.4705882,34.3529412 42.6470588,34.1764706 42.8235294,34.1764706 L45.2941176,34.1764706 C45.4705882,34.1764706 45.6470588,34.3529412 45.6470588,34.7058824 L45.6470588,38.7647059 Z M45.6470588,30.6470588 C45.6470588,30.8235294 45.4705882,31 45.2941176,31 L42.8235294,31 C42.6470588,31 42.4705882,30.8235294 42.4705882,30.6470588 L42.4705882,26.5882353 C42.4705882,26.2352941 42.6470588,26.0588235 42.8235294,26.0588235 L45.2941176,26.0588235 C45.4705882,26.0588235 45.6470588,26.2352941 45.6470588,26.5882353 L45.6470588,30.6470588 Z" id="Shape" fill="#FFFFFF" fill-rule="nonzero"></path>
            </g>
        </g>
    </g>
</svg>