<?xml version="1.0" encoding="UTF-8"?>
<svg width="19px" height="20px" viewBox="0 0 19 20" version="1.1" xmlns="http://www.w3.org/2000/svg" xmlns:xlink="http://www.w3.org/1999/xlink">
    <!-- Generator: Sketch 50.2 (55047) - http://www.bohemiancoding.com/sketch -->
    <title>Group 5</title>
    <desc>Created with Sketch.</desc>
    <defs></defs>
    <g id="Admin" stroke="none" stroke-width="1" fill="none" fill-rule="evenodd">
        <g id="Contacts-3" transform="translate(-45.000000, -13.000000)" fill="#FFFFFF" stroke="#FFFFFF">
            <g id="Group-3">
                <g id="Group-5" transform="translate(46.000000, 14.000000)">
                    <path d="M14.4326712,0.148978328 L3.73728318,0.148978328 C2.51988482,0.148978328 1.52943581,1.13867069 1.52943581,2.35513903 C1.52943581,2.48335644 1.63332108,2.58716234 1.76186483,2.58716234 C1.89018026,2.58716234 1.99406553,2.48335644 1.99406553,2.35513903 C1.99406553,1.39487736 2.77628736,0.613253099 3.73728318,0.613253099 L14.4326712,0.613253099 C15.393667,0.613253099 16.1758889,1.39487736 16.1758889,2.35513903 L16.1758889,15.582293 C16.1758889,16.5425547 15.393667,17.3241789 14.4326712,17.3241789 L3.73728318,17.3241789 C2.77628736,17.3241789 1.99406553,16.5425547 1.99406553,15.582293 C1.99406553,15.4540756 1.89018026,15.3500416 1.76186483,15.3500416 C1.6335494,15.3500416 1.52943581,15.4538475 1.52943581,15.582293 C1.52943581,16.7987614 2.51988482,17.7884537 3.73728318,17.7884537 L14.4326712,17.7884537 C15.6500696,17.7884537 16.6405186,16.7987614 16.6405186,15.582293 L16.6405186,2.35513903 C16.6405186,1.13867069 15.6500696,0.148978328 14.4326712,0.148978328 Z M5.31816583,12.747137 C5.33483314,12.8614375 5.43301042,12.9460793 5.54831166,12.9460793 L12.9739394,12.9460793 C13.0892406,12.9460793 13.1871896,12.8612094 13.2040852,12.747137 C13.2155012,12.6672863 13.4762418,10.7734559 12.4903592,9.63546935 C12.0193365,9.09180017 11.3492194,8.81620119 10.4989585,8.81620119 C10.4375406,8.81620119 10.3854838,8.84654446 10.3430164,8.88806682 C10.3329703,8.88601352 9.92633372,9.26952501 9.26169631,9.26952501 C8.59705891,9.26952501 8.18996564,8.88601352 8.18676917,8.88281949 C8.13813717,8.84700075 8.08585206,8.81620119 8.02397753,8.81620119 C7.17371656,8.81620119 6.50337118,9.09180017 6.03257683,9.63546935 C5.04600926,10.773684 5.30674987,12.6675144 5.31816583,12.747137 Z M7.87922311,9.28366999 L10.6427996,9.28366999 C11.2825502,9.3121881 11.7848526,9.53166344 12.1378342,9.93844571 C12.8148008,10.7187011 12.7981335,11.9933464 12.7632007,12.4820326 L5.75882203,12.4820326 C5.7229759,11.994259 5.70493868,10.7223514 6.38327524,9.93935829 C6.73580019,9.53211973 7.23878755,9.3121881 7.87922311,9.28366999 Z M11.4320993,6.26120701 C11.4320993,5.06504356 10.4583176,4.09223392 9.26146799,4.09223392 C8.06461836,4.09223392 7.09038003,5.06527171 7.09038003,6.26120701 C7.09038003,7.45737046 8.06461836,8.43063639 9.26146799,8.43063639 C10.4583176,8.43063639 11.4320993,7.45737046 11.4320993,6.26120701 Z M7.55478143,6.26120701 C7.55478143,5.32125023 8.32033595,4.55650869 9.26123967,4.55650869 C10.2019151,4.55650869 10.9672413,5.32147837 10.9672413,6.26120701 C10.9672413,7.20162009 10.2016868,7.96636162 9.26123967,7.96636162 C8.32010763,7.96658977 7.55478143,7.20162009 7.55478143,6.26120701 Z" id="Shape" fill-rule="nonzero"></path>
                    <path d="M0.293771908,4.47528912 C0.165456477,4.47528912 0.0615712074,4.37148322 0.0615712074,4.24326581 C0.0615712074,4.11504841 0.165456477,4.0112425 0.293771908,4.0112425 L3.22950112,4.0112425 C3.35781655,4.0112425 3.46170182,4.11504841 3.46170182,4.24326581 C3.46170182,4.37148322 3.35781655,4.47528912 3.22950112,4.47528912 L0.293771908,4.47528912 Z M0.293771908,7.62551322 C0.165456477,7.62551322 0.0615712074,7.52170731 0.0615712074,7.3934899 C0.0615712074,7.26504435 0.165456477,7.16123845 0.293771908,7.16123845 L3.22950112,7.16123845 C3.35781655,7.16123845 3.46170182,7.2652725 3.46170182,7.3934899 C3.46170182,7.52170731 3.35781655,7.62551322 3.22950112,7.62551322 L0.293771908,7.62551322 Z M0.293771908,10.7761936 C0.165456477,10.7761936 0.0615712074,10.6723877 0.0615712074,10.5441703 C0.0615712074,10.4157247 0.165456477,10.3119188 0.293771908,10.3119188 L3.22950112,10.3119188 C3.35781655,10.3119188 3.46170182,10.4159529 3.46170182,10.5441703 C3.46170182,10.6723877 3.35781655,10.7761936 3.22950112,10.7761936 L0.293771908,10.7761936 Z M3.46193014,13.6948507 C3.46193014,13.8230681 3.35804487,13.926874 3.22950112,13.926874 L0.293771908,13.926874 C0.165456477,13.926874 0.0615712074,13.8230681 0.0615712074,13.6948507 C0.0615712074,13.5664051 0.165456477,13.4625992 0.293771908,13.4625992 L3.22972944,13.4625992 C3.35804487,13.4625992 3.46193014,13.5666333 3.46193014,13.6948507 Z" id="Combined-Shape"></path>
                </g>
            </g>
        </g>
    </g>
</svg>