<?xml version="1.0" encoding="UTF-8"?>
<svg width="16px" height="16px" viewBox="0 0 16 16" version="1.1" xmlns="http://www.w3.org/2000/svg" xmlns:xlink="http://www.w3.org/1999/xlink">
    <!-- Generator: Sketch 50.2 (55047) - http://www.bohemiancoding.com/sketch -->
    <title>Group</title>
    <desc>Created with Sketch.</desc>
    <defs>
        <polygon id="path-1" points="0.000441176471 0.00316176471 15.9968382 0.00316176471 15.9968382 16 0.000441176471 16"></polygon>
    </defs>
    <g id="Admin" stroke="none" stroke-width="1" fill="none" fill-rule="evenodd">
        <g id="Contacts-3" transform="translate(-20.000000, -205.000000)">
            <g id="Group" transform="translate(20.000000, 205.000000)">
                <g id="Group-3">
                    <mask id="mask-2" fill="white">
                        <use xlink:href="#path-1"></use>
                    </mask>
                    <g id="Clip-2"></g>
                    <path d="M7.99845588,0.448264706 C3.83350735,0.448264706 0.445102941,3.83667647 0.445102941,8.00161765 C0.445102941,12.1665441 3.83350735,15.5549265 7.99845588,15.5549265 C12.1633824,15.5549265 15.5517647,12.1665441 15.5517647,8.00161765 C15.5517647,3.83666912 12.1633824,0.448264706 7.99845588,0.448264706 Z M7.99845588,16 C6.91872059,16 5.87122059,15.7885294 4.88503676,15.3713971 C4.41106618,15.1709559 3.95393382,14.9227941 3.52633088,14.6338971 C3.10283088,14.3477941 2.70459559,14.0192647 2.34268382,13.6573529 C1.98077941,13.2954412 1.65220588,12.8972059 1.36609559,12.4736765 C1.07721324,12.0461029 0.829088235,11.5889706 0.628617647,11.115 C0.2115,10.1288235 0,9.08132353 0,8.00161765 C0,6.921875 0.2115,5.874375 0.628617647,4.88819853 C0.829088235,4.41422794 1.07721324,3.95708824 1.36609559,3.52949265 C1.65220588,3.10599265 1.98077941,2.70775735 2.34268382,2.34584559 C2.70459559,1.98394118 3.10283088,1.65536765 3.52633088,1.36925735 C3.95393382,1.080375 4.41106618,0.83225 4.88503676,0.631779412 C5.87122059,0.214661765 6.91872059,0.00316176471 7.99845588,0.00316176471 C9.07816176,0.00316176471 10.1256618,0.214661765 11.1118382,0.631779412 C11.5858088,0.83225 12.0429412,1.080375 12.4705147,1.36925735 C12.8940441,1.65536765 13.2922794,1.98394118 13.6541912,2.34584559 C14.0161029,2.70775735 14.3446324,3.10599265 14.6307353,3.52949265 C14.9196324,3.95708824 15.1677941,4.41422794 15.3682353,4.88819853 C15.7853676,5.87438235 15.9968382,6.921875 15.9968382,8.00161765 C15.9968382,9.08132353 15.7853676,10.1288235 15.3682353,11.115 C15.1677941,11.5889706 14.9196324,12.0461029 14.6307353,12.4736765 C14.3446324,12.8972059 14.0161029,13.2954412 13.6541912,13.6573529 C13.2922794,14.0192647 12.8940441,14.3477941 12.4705147,14.6338971 C12.0429412,14.9227941 11.5858088,15.1709559 11.1118382,15.3713971 C10.1256618,15.7885294 9.07816176,16 7.99845588,16 Z" id="Fill-1" fill="#6F6F6F" mask="url(#mask-2)"></path>
                </g>
                <path d="M8.04022059,8.31257353 C9.6275,7.86433824 11.7759559,7.83882353 11.8299265,9.11683824 C11.9211765,11.2838971 6.19601471,13.5861029 4.23879412,11.5666176 C4.19255147,11.5188971 4.14814706,11.4710294 4.10544853,11.4231618 C4.63698529,10.0243382 6.58608824,8.72316176 8.04022059,8.31257353 Z M12.9436029,5.77858088 C12.9436029,5.77858088 12.1497059,3.81097059 9.28110294,3.77365441 C6.41195588,3.73606618 4.47901471,5.912625 4.47901471,5.912625 C4.47901471,5.912625 2.63101471,7.79007353 2.97345588,9.89205882 C3.08361029,10.5686765 3.34582353,11.0911765 3.71530147,11.4828676 C3.65832353,11.6798529 3.62771324,11.8817647 3.62771324,12.0877941 C3.62771324,12.7844118 3.93034559,13.2913235 4.27263971,13.5611029 C4.86381618,14.02625 5.29626471,14.0416176 5.44252941,14.0419118 C5.61958088,14.0422059 5.52476471,13.5461029 5.41181618,13.5353676 C5.35544118,13.5302206 4.99490441,13.5938235 4.47732353,13.2234559 C4.11707353,12.9653676 3.90428676,12.4275735 3.98600735,11.8730147 C3.99205147,11.8319118 3.99955882,11.7908088 4.00831618,11.7497059 C6.62019853,13.7926471 12.95875,10.9888971 12.2651471,8.89492647 C11.8850735,7.74639706 9.92080882,7.64360294 7.98904412,8.19529412 C6.38356618,8.65375 4.49632353,9.74007353 3.85448529,11.1144853 C2.04770588,8.66257353 4.48146324,6.12127941 4.48146324,6.12127941 C4.48146324,6.12127941 4.5295,6.80661765 5.09205882,7.16258088 C5.56681618,7.46301471 6.09098529,7.38794118 6.09098529,7.38794118 C6.09098529,7.38794118 5.29117647,7.02868382 5.61408088,6.71428676 C5.93691912,6.39995588 7.36580882,7.43492647 8.92904412,7.45536765 C10.4927941,7.47580882 11.2594118,6.87921324 11.2594118,6.87921324 C11.2594118,6.87921324 9.82117647,6.52630882 10.0744118,5.47159559 C10.2619118,4.68916176 11.4247794,4.97574265 12.0953676,5.63088971 C13.0846324,6.59670588 12.9213971,7.47727941 12.9213971,7.47727941 C12.9213971,7.47727941 13.2308088,6.45040441 12.9436029,5.77858088 Z M9.17955882,3.45713971 C12.0486029,3.45713971 12.9898529,5.52022794 12.9898529,5.52022794 C12.9898529,5.52022794 12.8838235,4.68491912 11.9879412,3.85155882 C10.6669853,2.62294853 9.90470588,2.97120588 9.71617647,2.494875 C9.50102941,1.95263235 10.3635294,1.66565441 10.3635294,1.66565441 C10.3635294,1.66565441 9.57522059,1.25472059 7.42022059,2.39516176 C5.70259559,3.30421324 5.47552941,4.15483824 5.27819853,4.04877941 C5.08078676,3.94258088 5.29351471,3.60891912 5.29351471,3.60891912 C5.29351471,3.60891912 4.91389706,3.60891912 4.57990441,4.54932353 C4.38461765,5.0995 4.41301471,5.67180147 4.41301471,5.67180147 C4.41301471,5.67180147 6.31051471,3.45713971 9.17955882,3.45713971 Z" id="Fill-4" fill="#6F6F6F"></path>
            </g>
        </g>
    </g>
</svg>