<?xml version="1.0" encoding="UTF-8"?>
<svg width="30px" height="30px" viewBox="0 0 30 30" version="1.1" xmlns="http://www.w3.org/2000/svg" xmlns:xlink="http://www.w3.org/1999/xlink">
    <!-- Generator: Sketch 50.2 (55047) - http://www.bohemiancoding.com/sketch -->
    <title>Group 4</title>
    <desc>Created with Sketch.</desc>
    <defs>
        <polygon id="path-1" points="0.000606617647 0.00434742647 21.9956526 0.00434742647 21.9956526 22 0.000606617647 22"></polygon>
    </defs>
    <g id="Admin" stroke="none" stroke-width="1" fill="none" fill-rule="evenodd">
        <g id="Contacts-3" transform="translate(-19.000000, -57.000000)">
            <g id="Group-4" transform="translate(19.000000, 57.000000)">
                <rect id="Rectangle-19-Copy-3" fill="#534E86" x="0" y="0" width="30" height="30" rx="3"></rect>
                <g id="Group" transform="translate(4.000000, 4.000000)">
                    <g id="Group-3">
                        <mask id="mask-2" fill="white">
                            <use xlink:href="#path-1"></use>
                        </mask>
                        <g id="Clip-2"></g>
                        <path d="M10.9978768,0.616363971 C5.27107261,0.616363971 0.612016544,5.27543015 0.612016544,11.0022243 C0.612016544,16.7289982 5.27107261,21.3880239 10.9978768,21.3880239 C16.7246507,21.3880239 21.3836765,16.7289982 21.3836765,11.0022243 C21.3836765,5.27542004 16.7246507,0.616363971 10.9978768,0.616363971 Z M10.9978768,22 C9.51324081,22 8.07292831,21.7092279 6.71692555,21.135671 C6.06521599,20.8600643 5.43665901,20.5188419 4.84870496,20.1216085 C4.26639246,19.7282169 3.71881893,19.276489 3.22119026,18.7788603 C2.72357169,18.2812316 2.27178309,17.7336581 1.87838143,17.1513051 C1.4811682,16.5633915 1.13999632,15.9348346 0.864349265,15.283125 C0.2908125,13.9271324 0,12.4868199 0,11.0022243 C0,9.51757812 0.2908125,8.07726562 0.864349265,6.72127298 C1.13999632,6.06956342 1.4811682,5.44099632 1.87838143,4.85305239 C2.27178309,4.27073989 2.72357169,3.72316636 3.22119026,3.22553768 C3.71881893,2.72791912 4.26639246,2.27613051 4.84870496,1.88272886 C5.43665901,1.48551562 6.06521599,1.14434375 6.71692555,0.868696691 C8.07292831,0.295159926 9.51324081,0.00434742647 10.9978768,0.00434742647 C12.4824724,0.00434742647 13.9227849,0.295159926 15.2787776,0.868696691 C15.9304871,1.14434375 16.5590441,1.48551562 17.1469577,1.88272886 C17.7293107,2.27613051 18.2768842,2.72791912 18.7745129,3.22553768 C19.2721415,3.72316636 19.7238695,4.27073989 20.117261,4.85305239 C20.5144945,5.44099632 20.8557169,6.06956342 21.1313235,6.72127298 C21.7048805,8.07727574 21.9956526,9.51757812 21.9956526,11.0022243 C21.9956526,12.4868199 21.7048805,13.9271324 21.1313235,15.283125 C20.8557169,15.9348346 20.5144945,16.5633915 20.117261,17.1513051 C19.7238695,17.7336581 19.2721415,18.2812316 18.7745129,18.7788603 C18.2768842,19.276489 17.7293107,19.7282169 17.1469577,20.1216085 C16.5590441,20.5188419 15.9304871,20.8600643 15.2787776,21.135671 C13.9227849,21.7092279 12.4824724,22 10.9978768,22 Z" id="Fill-1" fill="#FFFFFF" mask="url(#mask-2)"></path>
                    </g>
                    <path d="M11.0566937,11.6558895 C13.2102152,11.0617636 16.1251059,11.0279444 16.1983298,12.7219245 C16.3221321,15.5943127 8.55459038,18.6458354 5.8991558,15.9690526 C5.83641666,15.9058 5.77617153,15.8423525 5.71824084,15.778905 C6.4393967,13.9247955 9.08381777,12.2001151 11.0566937,11.6558895 Z M17.7092964,8.29713868 C17.7092964,8.29713868 16.6321865,5.68911503 12.7402453,5.63965327 C8.84756588,5.5898309 6.22507208,8.47481117 6.22507208,8.47481117 C6.22507208,8.47481117 3.71782116,10.9633274 4.18242395,13.7494621 C4.33187457,14.6463038 4.68762911,15.3388659 5.18891369,15.8580438 C5.11160958,16.1191434 5.07007944,16.386773 5.07007944,16.6598604 C5.07007944,17.5832116 5.48067211,18.2551118 5.94507538,18.6126984 C6.74714667,19.2292405 7.33386581,19.24961 7.53230862,19.2499998 C7.77252099,19.2503897 7.64388033,18.5928163 7.49063882,18.5785869 C7.41415275,18.5717646 6.92499899,18.6560688 6.2227776,18.1651548 C5.73401291,17.8230646 5.44531712,17.1102304 5.55619051,16.3751751 C5.56439079,16.320694 5.5745763,16.266213 5.58645773,16.211732 C9.13009649,18.919605 17.729847,15.2032968 16.7888099,12.4277854 C16.2731499,10.9054352 13.6081583,10.7691839 10.9872606,11.5004383 C8.8090485,12.1081113 6.24855561,13.548009 5.3777496,15.3697612 C2.9264242,12.1198067 6.22839409,8.75137795 6.22839409,8.75137795 C6.22839409,8.75137795 6.29356737,9.65977853 7.05681203,10.1315999 C7.70093314,10.5298182 8.41209304,10.4303099 8.41209304,10.4303099 C8.41209304,10.4303099 7.32696241,9.9541223 7.76505894,9.537396 C8.20306568,9.12075741 10.1416939,10.4925879 12.2625939,10.5196822 C14.3841922,10.5467765 15.4242911,9.75600236 15.4242911,9.75600236 C15.4242911,9.75600236 13.4729833,9.28823542 13.8165571,7.8902365 C14.0709454,6.85313789 15.6486516,7.23299447 16.5584638,8.10137731 C17.9006363,9.38154515 17.6791689,10.5487258 17.6791689,10.5487258 C17.6791689,10.5487258 18.0989594,9.18762581 17.7092964,8.29713868 Z M12.6024766,5.22012007 C16.4950164,5.22012007 17.7720455,7.95469761 17.7720455,7.95469761 C17.7720455,7.95469761 17.6281915,6.84751435 16.4127143,5.74291383 C14.6205239,4.11441824 13.5863108,4.57602561 13.3305259,3.94465962 C13.0386278,3.22592907 14.2088139,2.84554619 14.2088139,2.84554619 C14.2088139,2.84554619 13.1392858,2.30086256 10.2155164,3.81249195 C7.88515016,5.01741944 7.57708096,6.14490394 7.30935475,6.00432533 C7.0415188,5.86356155 7.33013478,5.4213003 7.33013478,5.4213003 C7.33013478,5.4213003 6.81509328,5.4213003 6.36195293,6.66778542 C6.09700005,7.39703208 6.1355274,8.15560494 6.1355274,8.15560494 C6.1355274,8.15560494 8.70993683,5.22012007 12.6024766,5.22012007 Z" id="Fill-4" fill="#FFFFFF"></path>
                </g>
            </g>
        </g>
    </g>
</svg>