<?xml version="1.0" encoding="UTF-8"?>
<svg width="15px" height="21px" viewBox="0 0 15 21" version="1.1" xmlns="http://www.w3.org/2000/svg" xmlns:xlink="http://www.w3.org/1999/xlink">
    <!-- Generator: Sketch 50.2 (55047) - http://www.bohemiancoding.com/sketch -->
    <title>Group 9</title>
    <desc>Created with Sketch.</desc>
    <defs></defs>
    <g id="Admin" stroke="none" stroke-width="1" fill="none" fill-rule="evenodd">
        <g id="Contacts-3" transform="translate(-16.000000, -13.000000)" fill="#FFFFFF">
            <g id="Group-3">
                <g id="Group-9" transform="translate(11.000000, 11.000000)">
                    <g id="ic/apps/grey600">
                        <g id="Group-2" transform="translate(5.000000, 2.000000)">
                            <path d="M14.5175805,6.76623283 C14.7806574,7.34892514 14.9121959,7.9754636 14.9133497,8.64700206 C14.9133497,9.3104636 14.7818113,9.93238667 14.5175805,10.515079 C14.2533497,11.0977713 13.9002728,11.6054636 13.4525805,12.0393098 C13.0071959,12.4731559 12.4891189,12.8123867 11.896042,13.0593098 C11.3052728,13.305079 10.6787343,13.4285405 10.0164266,13.4285405 C9.56527279,13.4285405 9.13604202,13.3466174 8.71604202,13.2266174 L8.71604202,13.2277713 C7.73642664,12.8723867 7.04988818,12.9670021 6.58604202,13.4216174 C5.56950356,14.4162328 3.76604202,16.005079 4.3279651,17.2258482 C4.33142664,17.2327713 4.32565741,17.2408482 4.3279651,17.2477713 C4.46065741,17.6562328 4.47450356,18.105079 4.34527279,18.5470021 C4.00258048,19.7227713 2.77027279,20.3966174 1.59450356,20.0527713 C0.41873433,19.710079 -0.253957978,18.4789251 0.0898881761,17.3031559 C0.40373433,16.2323867 1.45373433,15.5873867 2.5279651,15.7396944 C2.53027279,15.7385405 2.53027279,15.735079 2.53258048,15.7327713 C2.56604202,15.7454636 2.60065741,15.7489251 2.6329651,15.7593098 C2.70334971,15.7731559 2.77142664,15.7766174 2.84065741,15.7973867 C2.84527279,15.7985405 2.84988818,15.8020021 2.85450356,15.8031559 C4.15604202,15.9058482 5.4979651,13.6327713 5.88450356,12.9796944 C6.48911895,11.9539251 5.75065741,11.1843098 5.6779651,10.7770021 C5.6779651,10.7770021 5.6779651,10.7758482 5.6779651,10.7758482 C5.63758048,10.6973867 5.58334971,10.6293098 5.54642664,10.5473867 C5.27873433,9.96930975 5.14488818,9.3531559 5.14488818,8.69777129 C5.14488818,8.02738667 5.27181125,7.39623283 5.52681125,6.80430975 C5.78181125,6.21354052 6.13027279,5.70123283 6.57219587,5.26854052 C6.62758048,5.21430975 6.69334971,5.17392514 6.75104202,5.1231559 C7.45373433,4.08584821 7.13988818,3.18238667 6.22604202,3.14430975 C6.2179651,3.1454636 6.20873433,3.14892514 6.19834971,3.15007898 C5.33065741,3.25507898 4.54488818,2.6354636 4.43988818,1.76892514 C4.33604202,0.902386674 4.95450356,0.115463597 5.82219587,0.0116174434 C6.68988818,-0.0933825566 7.47565741,0.525078982 7.57950356,1.39277129 C7.61411895,1.68007898 7.56334971,1.95469437 7.45719587,2.20277129 C7.46642664,2.21200206 7.47219587,2.21892514 7.47219587,2.21892514 C6.56758048,3.76392514 8.06181125,4.09507898 8.97334971,3.98084821 C9.31027279,3.90930975 9.65527279,3.86661744 10.0164266,3.86661744 C10.6787343,3.86661744 11.3052728,3.98892514 11.896042,4.23584821 C12.4891189,4.48161744 13.0071959,4.82084821 13.4525805,5.24892514 C13.9002728,5.6781559 14.2533497,6.18354052 14.5175805,6.76623283 Z M12.436042,9.33354052 C12.4637343,9.00007898 12.5064266,8.61584821 12.4083497,8.17392514 C12.1071959,6.81354052 10.5068113,5.95854052 9.27334971,6.37507898 C8.05950356,6.78700206 7.26911895,7.98123283 7.5979651,9.27584821 C7.92219587,10.5577713 9.04258048,11.3677713 10.4629651,11.2258482 C10.4629651,11.2327713 10.4606574,11.2189251 10.4629651,11.2258482 C14.4402728,11.0262328 12.2364266,12.7754636 12.436042,9.33354052 Z" id="Combined-Shape" fill-rule="nonzero"></path>
                        </g>
                    </g>
                </g>
            </g>
        </g>
    </g>
</svg>