<?xml version="1.0" encoding="UTF-8"?>
<svg width="15px" height="15px" viewBox="0 0 15 15" version="1.1" xmlns="http://www.w3.org/2000/svg" xmlns:xlink="http://www.w3.org/1999/xlink">
    <!-- Generator: Sketch 50.2 (55047) - http://www.bohemiancoding.com/sketch -->
    <title>Combined Shape</title>
    <desc>Created with Sketch.</desc>
    <defs></defs>
    <g id="Admin" stroke="none" stroke-width="1" fill="none" fill-rule="evenodd">
        <g id="Contacts-3" transform="translate(-20.000000, -158.000000)" fill="#6F6F6F">
            <path d="M21.2560622,166.807451 L21.2560622,163.62894 L22.5017645,163.62894 L22.5017645,166.807451 L23.4402123,166.807451 L23.4402123,158 L29.3876617,162.492194 L29.3876617,158 L34.9821277,162.492194 L34.9821277,172.67 L20,172.67 L20,166.758415 L21.2560622,166.807451 Z M25.6182979,167.988085 L25.6182979,170.485106 L26.8668085,170.485106 L26.8668085,167.988085 L25.6182979,167.988085 Z M27.8031915,167.988085 L27.8031915,170.485106 L29.0517022,170.485106 L29.0517022,167.988085 L27.8031915,167.988085 Z M30.3002128,167.988085 L30.3002128,170.485106 L31.5487235,170.485106 L31.5487235,167.988085 L30.3002128,167.988085 Z M32.4851064,167.988085 L32.4851064,170.485106 L33.7336171,170.485106 L33.7336171,167.988085 L32.4851064,167.988085 Z M25.6182979,165.803192 L25.6182979,167.051702 L26.8668085,167.051702 L26.8668085,165.803192 L25.6182979,165.803192 Z M27.8031915,165.803192 L27.8031915,167.051702 L29.0517022,167.051702 L29.0517022,165.803192 L27.8031915,165.803192 Z M30.3002128,165.803192 L30.3002128,167.051702 L31.5487235,167.051702 L31.5487235,165.803192 L30.3002128,165.803192 Z M32.4851064,165.803192 L32.4851064,167.051702 L33.7336171,167.051702 L33.7336171,165.803192 L32.4851064,165.803192 Z" id="Combined-Shape"></path>
        </g>
    </g>
</svg>