<?xml version="1.0" encoding="UTF-8"?>
<svg width="64px" height="64px" viewBox="0 0 64 64" version="1.1" xmlns="http://www.w3.org/2000/svg" xmlns:xlink="http://www.w3.org/1999/xlink">
    <!-- Generator: Sketch 50.2 (55047) - http://www.bohemiancoding.com/sketch -->
    <title>Group 7</title>
    <desc>Created with Sketch.</desc>
    <defs></defs>
    <g id="Admin" stroke="none" stroke-width="1" fill="none" fill-rule="evenodd">
        <g id="Contacts-3" transform="translate(-839.000000, -121.000000)">
            <g id="Group-7" transform="translate(839.000000, 121.000000)">
                <rect id="Rectangle-19-Copy-3" fill="#1BC4A6" x="0" y="0" width="64" height="64" rx="3"></rect>
                <path d="M17.0181455,33.1630979 L17.0181455,25.5255711 L20.0113973,25.5255711 L20.0113973,33.1630979 L22.2663587,33.1630979 L22.2663587,12 L36.5572646,22.7941264 L36.5572646,12 L50,22.7941264 L50,47.25 L14,47.25 L14,33.0452703 L17.0181455,33.1630979 Z M27.5,36 L27.5,42 L30.5,42 L30.5,36 L27.5,36 Z M32.75,36 L32.75,42 L35.75,42 L35.75,36 L32.75,36 Z M38.75,36 L38.75,42 L41.75,42 L41.75,36 L38.75,36 Z M44,36 L44,42 L47,42 L47,36 L44,36 Z M27.5,30.75 L27.5,33.75 L30.5,33.75 L30.5,30.75 L27.5,30.75 Z M32.75,30.75 L32.75,33.75 L35.75,33.75 L35.75,30.75 L32.75,30.75 Z M38.75,30.75 L38.75,33.75 L41.75,33.75 L41.75,30.75 L38.75,30.75 Z M44,30.75 L44,33.75 L47,33.75 L47,30.75 L44,30.75 Z" id="Combined-Shape" fill="#FFFFFF"></path>
            </g>
        </g>
    </g>
</svg>